<svg width="67" height="58" viewBox="0 0 67 58" fill="none" xmlns="http://www.w3.org/2000/svg">
<path fill-rule="evenodd" clip-rule="evenodd" d="M7.07013 7.57996V50.7499H50.2301V35.7699H53.5601C55.2101 35.7699 56.7101 35.0999 57.7901 34.0199C58.8701 32.9399 59.5401 31.4399 59.5401 29.7799C59.5401 28.1199 58.8701 26.6199 57.8001 25.5499H57.7901C56.7101 24.4699 55.2101 23.7999 53.5601 23.7999H50.2301V7.5899L40.3201 7.61993C39.4101 9.71993 38.0501 11.4699 36.4401 12.7999C33.9701 14.8399 30.8901 15.9199 27.9101 15.8399C24.9401 15.7599 22.2901 14.7799 20.1501 12.7799C18.7601 11.4799 17.6202 9.7799 16.7802 7.6499L7.07013 7.57996ZM0.400146 54.0599V0.899902L21.8201 1.0199L22.4401 3.52991C22.9401 5.54991 23.7101 6.98995 24.6801 7.88995C25.5801 8.72995 26.7301 9.13993 28.0701 9.17993C29.4601 9.21993 30.9501 8.6699 32.1901 7.6499C33.3601 6.6799 34.2801 5.28994 34.6701 3.55994L35.2501 0.979919L56.8801 0.919922V17.5699C59.0301 18.1599 60.9601 19.3 62.4901 20.83L62.4801 20.8399C64.7701 23.1399 66.1901 26.2999 66.1901 29.7799C66.1901 33.2699 64.7801 36.4199 62.4901 38.7099C60.9601 40.2399 59.0301 41.3799 56.8801 41.9699V57.3999H0.390137V54.0599H0.400146Z" fill="#00926F"/>
</svg>
