<svg width="353" height="307" viewBox="0 0 353 307" fill="none" xmlns="http://www.w3.org/2000/svg">
<path fill-rule="evenodd" clip-rule="evenodd" d="M352.86 65.97H269.3V55.97C269.3 46.12 265.28 37.17 258.78 30.68L258.8 30.66C252.31 24.18 243.36 20.17 233.49 20.17V20.21H233.48V20.17C223.63 20.17 214.69 24.19 208.2 30.68C201.71 37.17 197.69 46.11 197.69 55.96H197.73V65.97H118.09L118.25 125.34C129.35 129.33 138.42 136.03 145.13 144.13C154.2 155.08 158.98 168.7 158.64 181.8C158.3 194.89 153.89 208.53 144.87 219.61C138.42 227.55 129.67 234.15 118.46 238.29L118.07 306.89L98.1501 306.81L98.6301 223.09L106.16 221.23C116.49 218.68 124.15 213.5 129.4 207.04C135.5 199.54 138.49 190.26 138.72 181.33C138.94 172.97 135.76 164.13 129.74 156.86C124.15 150.11 116.14 144.79 106.12 142.53L98.3701 140.77L98.1101 45.97H178.65C180.7 34.57 186.21 24.38 194.05 16.54C204.11 6.47998 218.05 0.25 233.47 0.25V0.209961H233.48V0.25C248.88 0.25 262.8 6.46998 272.87 16.54H272.91C280.75 24.38 286.26 34.56 288.31 45.97H352.85V65.97H352.86Z" fill="#00926F"/>
<path fill-rule="evenodd" clip-rule="evenodd" d="M71.11 13.4099H0.949951V83.5599H22.05C22.05 90.8099 27.9199 96.6799 35.1699 96.6799C42.41 96.6799 48.2799 90.8099 48.2799 83.5599H71.1L71.0399 61.5399C63.6299 59.8599 59.32 53.4499 59.47 47.5599C59.62 41.6699 63.18 37.1299 70.9799 35.2099L71.11 13.4099Z" fill="#6D097A"/>
</svg>
