<svg width="255" height="307" viewBox="0 0 255 307" fill="none" xmlns="http://www.w3.org/2000/svg">
<path fill-rule="evenodd" clip-rule="evenodd" d="M254.86 65.97H171.3V55.97C171.3 46.12 167.28 37.17 160.78 30.68L160.8 30.66C154.31 24.18 145.36 20.17 135.49 20.17V20.21H135.48V20.17C125.63 20.17 116.69 24.19 110.2 30.68C103.71 37.17 99.6901 46.11 99.6901 55.96H99.7301V65.97H20.0901L20.2501 125.34C31.3501 129.33 40.4201 136.03 47.1301 144.13C56.2001 155.08 60.9801 168.7 60.6401 181.8C60.3001 194.89 55.8901 208.53 46.8701 219.61C40.4201 227.55 31.6701 234.15 20.4601 238.29L20.0701 306.89L0.150101 306.81L0.630112 223.09L8.16011 221.23C18.4901 218.68 26.1501 213.5 31.4001 207.04C37.5001 199.54 40.4901 190.26 40.7201 181.33C40.9401 172.97 37.7601 164.13 31.7401 156.86C26.1501 150.11 18.1401 144.79 8.1201 142.53L0.370102 140.77L0.110107 45.97H80.6501C82.7001 34.57 88.2101 24.38 96.0501 16.54C106.11 6.47998 120.05 0.25 135.47 0.25V0.209961H135.48V0.25C150.88 0.25 164.8 6.46998 174.87 16.54H174.91C182.75 24.38 188.26 34.56 190.31 45.97H254.85V65.97H254.86Z" fill="#00926F"/>
</svg>
