<svg width="289" height="326" fill="none" xmlns="http://www.w3.org/2000/svg"><path d="M202.218 162.205c39.865-9.414 64.551-49.362 55.138-89.227-9.414-39.865-49.362-64.551-89.227-55.138-39.865 9.413-64.551 49.361-55.138 89.227 9.413 39.865 49.361 64.551 89.227 55.138Z" fill="#CAE6DF"/><path d="M171.708 298.03c64.537-15.112 104.603-79.679 89.492-144.216-15.112-64.536-79.68-104.603-144.216-89.491C52.447 79.435 12.38 144.002 27.492 208.539c15.112 64.536 79.68 104.603 144.216 89.491Z" fill="#CAE6DF"/><path fill-rule="evenodd" clip-rule="evenodd" d="M107.16 107.34c17.74 0 32.2-14.47 32.2-32.2 0-17.73-14.47-32.2-32.2-32.2-17.74 0-32.2 14.47-32.2 32.2 0 17.73 14.46 32.2 32.2 32.2Z" fill="#CAE6DF"/><path fill-rule="evenodd" clip-rule="evenodd" d="M244.09 194.85H89.15l-7.17-41.86h154.67l7.44 41.86Z" fill="#D9DADA"/><path fill-rule="evenodd" clip-rule="evenodd" d="M137.1 199.97H89.45c-.08 0-.14-.08-.14-.17v-4.95h47.79v5.12Z" fill="#727271"/><path fill-rule="evenodd" clip-rule="evenodd" d="M264.97 199.97H115.78c-1.35 0-2.44-1.15-2.44-2.56 0-1.42 1.09-2.56 2.44-2.56h149.18c1.35 0 2.44 1.15 2.44 2.56.01 1.42-1.09 2.56-2.43 2.56Z" fill="#727271"/><path fill-rule="evenodd" clip-rule="evenodd" d="m97.34 199.97-3.05 11.99v.02l-9.03 35.52c-.12.47-.54.79-1.01.79-.92 0-1.61-.84-1.43-1.73l8.05-41.43 1-5.15h5.47v-.01Z" fill="#C5C6C6"/><path fill-rule="evenodd" clip-rule="evenodd" d="M94.29 211.96c.29-6.13-3.41-6.84-3.41-6.84l1-5.15h5.46l-3.05 11.99Z" fill="#727271"/><path fill-rule="evenodd" clip-rule="evenodd" d="m130.16 199.97-3.05 11.99v.02l-9.03 35.52c-.12.47-.54.79-1.01.79-.92 0-1.61-.84-1.43-1.73l8.05-41.43 1-5.15h5.47v-.01Z" fill="#C5C6C6"/><path fill-rule="evenodd" clip-rule="evenodd" d="M127.11 211.96c.29-6.13-3.41-6.84-3.41-6.84l1-5.15h5.46l-3.05 11.99Z" fill="#727271"/><path fill-rule="evenodd" clip-rule="evenodd" d="m257.84 199.97 3.05 11.99v.02l9.03 35.52c.12.47.54.79 1.01.79.92 0 1.61-.84 1.43-1.73l-8.05-41.43-1-5.15h-5.47v-.01Z" fill="#C5C6C6"/><path fill-rule="evenodd" clip-rule="evenodd" d="M260.89 211.96c-.29-6.13 3.41-6.84 3.41-6.84l-1-5.15h-5.46l3.05 11.99Z" fill="#727271"/><path fill-rule="evenodd" clip-rule="evenodd" d="m229.31 199.97 3.05 11.99v.02l9.03 35.52c.12.47.54.79 1.01.79.92 0 1.61-.84 1.43-1.73l-8.05-41.43-1-5.15h-5.47v-.01Z" fill="#C5C6C6"/><path fill-rule="evenodd" clip-rule="evenodd" d="M232.36 211.96c-.29-6.13 3.41-6.84 3.41-6.84l-1-5.15h-5.46l3.05 11.99Z" fill="#FFC973"/><path fill-rule="evenodd" clip-rule="evenodd" d="M152.97 248.26h-13.64c-.73-.62.51-2.03 1.8-2.12.56-.04 1.27.07 2.08.25.19-2.49 1.26-13.7 5.3-13.25 4.54.5 0 4.93-1.28 7.56-.95 1.94-1.95 4.73-2.41 6.04.37.08.75.16 1.14.23.6-1.85 2.84-8.06 5.69-7.7 3.35.42 2 2.92-.37 4.4-1.74 1.09-3.87 2.63-4.89 3.38.86.14 1.76.23 2.67.21 2.32-.06 3.46.63 3.91 1Z" fill="#00926F"/><path fill-rule="evenodd" clip-rule="evenodd" d="M153.39 49.31s3.55-7.9 12.06-7.02c0 0 12.34-13.16 25.5-1.76 0 0 13.99-2.83 24.35 2.45 6.91 3.52 9.19 7.2 9.19 7.2l-71.1-.87ZM204.45 65.77s2.06-4.82 7-4.28c0 0 7.17-8.03 14.81-1.07 0 0 8.12-1.72 14.14 1.49 4.01 2.14 5.34 4.39 5.34 4.39l-41.29-.53Z" fill="#FEFEFE"/><path fill-rule="evenodd" clip-rule="evenodd" d="M193.1 159.8c-.6-.45-1.46-1.78-2.39-3.51-1.78-3.3-3.83-8.06-4.86-10.93-.5-1.41-.76-2.36-.62-2.45.13-.09.64-.94 1.33-2.21.73-1.34 1.67-3.15 2.6-4.98 1.81-3.6 3.54-7.32 3.49-7.91.46 1.44 8.13 25.76 8.32 29.11.19 3.45-5.57 4.61-7.87 2.88Z" fill="#9A34A8"/><path fill-rule="evenodd" clip-rule="evenodd" d="M190.72 156.3c-1.79-3.31-3.84-8.07-4.87-10.93.19-1.52.43-3.16.71-4.66.56-2.99 1.31-5.4 2.22-5.17.14.03 1.46-.08 1.57.02 1.83 1.43 0 10.85 1.38 13.51 1.04 1.99-1.01 7.23-1.01 7.23Z" fill="#6D097A"/><path fill-rule="evenodd" clip-rule="evenodd" d="M192.65 127.81c-.01-.03-.02-.05-.02-.06.01.01.01.03.02.06Z" fill="#8D8D8D"/><path fill-rule="evenodd" clip-rule="evenodd" d="M139.36 112.86s3.83 2.21 9.08 7.12c4.76 4.46 11.94 14.39 15.11 16.41 3.17 2.01 20.15 3.45 20.15 3.45v3.74s-15.26 5.04-25.33 3.02c-10.07-2.01-18.71-9.64-18.71-9.64l-.3-24.1Z" fill="#00926F"/><path fill-rule="evenodd" clip-rule="evenodd" d="M217.67 229.46c.16-.52.36-1.19.57-1.92.37-4.22 1.32-20.22 2.72-26.45 4.89 3.16 10.88.22 12.44.22-2 6.07-7.41 22.43-8.74 25.85-.54 2.28-1.26 6-.85 7.94.65 3.08 1.64 5.97 3.38 8.44.19.28-7.19-.86-10.19-2.89-3-2.03-5.32-4-3.98-5.81.47-.64 1.03-1.25 1.64-1.74 1.12-.88 2.52-2.09 3.01-3.64Z" fill="#FC8B3F"/><path fill-rule="evenodd" clip-rule="evenodd" d="M216.94 241.34c3.28 1.54 1.99 1.81 6.24 4.52 4.25 2.71 6.6 2.21 7.19 1.72.52-.43-1.26-2.16-3.14-4.07l-.05.02s-3.68-.23-6.99-2.76c-2.7-2.07-4.89-5.08-6.74-6.52-.53.57-1.07 1.16-1.43 1.86-1.04 2.01 1.64 3.69 4.92 5.23Z" fill="#00926F"/><path fill-rule="evenodd" clip-rule="evenodd" d="M205.73 232.07c.06-.54.13-1.23.2-1.99-.42-4.22-2.48-20.11-2.27-26.5 5.39 2.19 10.73-1.81 12.26-2.1-.83 6.33-3.1 23.42-3.76 27.03-.1 2.34-.12 6.13.65 7.96 1.22 2.91 2.73 5.56 4.89 7.66.24.23-7.22.5-10.55-.94-3.33-1.44-5.97-2.93-5-4.96.34-.71.78-1.42 1.29-2.01.95-1.08 2.1-2.53 2.29-4.15Z" fill="#FBA870"/><path fill-rule="evenodd" clip-rule="evenodd" d="M207.23 243.88c3.51.9 2.29 1.41 6.97 3.27 4.68 1.87 6.9.94 7.38.35.43-.52-1.64-1.89-3.84-3.41l-.05.03s-3.65.47-7.38-1.41c-3.04-1.53-5.75-4.08-7.84-5.15-.41.66-.83 1.34-1.06 2.1-.64 2.16 2.32 3.32 5.82 4.22Z" fill="#00926F"/><path fill-rule="evenodd" clip-rule="evenodd" d="M184.66 169.63s4.6-6 7.77-5.13c3.17.86 24.49 4.95 35.4 16.5 9.79 10.36 9.5 29.65 9.5 29.65s-14.68 4.03-24.18 2.3c-9.5-1.73-10.84.38-15.25 1.06-3.14.48-5.61-16.31-7.77-17.75-3.39-2.26-29.65-1.73-30.22-13.24-.58-11.52 24.75-13.39 24.75-13.39Z" fill="#6D097A"/><path fill-rule="evenodd" clip-rule="evenodd" d="M180.82 85.99c.31-2.75-1.04-4.92-4.07-5.46-2.22-.39-5.47.61-5.79 3.36-.32 2.75 1.55 6.19 4.3 6.51a5.01 5.01 0 0 0 5.56-4.41Z" fill="#FAFAFA"/><path fill-rule="evenodd" clip-rule="evenodd" d="M174.3 105.4s13.21-9.42 4.94-18.76c-.8-.91-1.82-1.59-2.97-1.98-3.14-1.07-10.2-2.88-14.28.71-4.4 3.87-6.31 6.97-3.51 11.27 2.81 4.31 15.82 8.76 15.82 8.76Z" fill="#FAFAFA"/><path fill-rule="evenodd" clip-rule="evenodd" d="M163.51 104.05s-.04 1.8-.01 4.23c.01 1.19.04 2.54.1 3.9.04.98-.12 1.88-.04 2.83l2.72 14.33 11.36-14.41s-2.04-2.12-3.94-12.57l-.03-.17-10.16 1.86Z" fill="#FBA870"/><path fill-rule="evenodd" clip-rule="evenodd" d="M192.93 168.05c.75 1.38-3.09 4.89-5.04 5.9-2.48 1.29-2.61 1.75-17.51 2.71-1.61.1-3.13.19-4.55.27-9.62.53-14.79.52-14.79.52s7.32-10.84 4.36-37.51c-.38-3.45.94-9.07 2.93-11.94 2.07-2.99 2.18-6.68 2.69-10.23.14-1.02-.63-1.15-.36-2.13 0 0 2.59-1.06 2.87-1.1 1.67 1.17 3.98 3.54 9.02 3.49 3.41-.03 4.48-2.29 4.83-3.48 1.34.32 2.79 1.17 3.95 1.57 9.53 3.3 11.32 11.62 11.32 11.62s-3.46 24.47-3.75 27.93c-.21 2.31 2.23 9.07 4.03 12.38Z" fill="#9A34A8"/><path fill-rule="evenodd" clip-rule="evenodd" d="M163.5 108.28c.01 1.19.04 2.54.1 3.9 10.93-2.88 10.25-8.73 10.1-9.82l-.03-.17s-5.81 3.2-10.17 6.09Z" fill="#FC8B3F"/><path fill-rule="evenodd" clip-rule="evenodd" d="M161.17 109.4s11.68 1.71 12.63-5.57c.96-7.29 3.11-11.98-4.31-13.38-7.42-1.4-9.23 1.19-10.14 3.54-.91 2.35-1.19 14.78 1.82 15.41Z" fill="#FBA870"/><path fill-rule="evenodd" clip-rule="evenodd" d="M162.09 88.54s-.85 14 13.58 14.32c0 .01 1.82-18.64-13.58-14.32Z" fill="#FAFAFA"/><path fill-rule="evenodd" clip-rule="evenodd" d="M165.11 90.07s-4.53 2.1-6.32 6.09c0 0-3.97-7.12 6.32-6.09Z" fill="#FAFAFA"/><path fill-rule="evenodd" clip-rule="evenodd" d="M169.4 170.26c3.84 12.28-18.94 7.34-18.94 7.34s1-4.38.3-12.93c-.28-3.47-4.14-8.24-3.34-12.73.85-4.69 11.19-7.98 14.01-13.54-2.49 14.11 11.9 23.13 7.97 31.86Z" fill="#6D097A"/><path fill-rule="evenodd" clip-rule="evenodd" d="M169.19 170.42s5.11-.36 7.05.22c1.94.58 3.67 2.16 3.89 3.02.22.86-3.96 1.37-4.97.94-1.01-.43-2.81.43-4.03.07-1.22-.36-2.59-1.37-2.59-1.37l.65-2.88Z" fill="#FBA870"/><path fill-rule="evenodd" clip-rule="evenodd" d="M163.52 114.55s-11.07 3.62-15.46 10.05c-3.36 4.92-5.09 27.32-4.68 30.94.4 3.46 4.89 10.11 24.1 18.53.28.12 3.5-.79 2.64-3.74l-14.63-16.86 8.86-22.22s6.42-9.65-.83-16.7Z" fill="#9A34A8"/><path fill-rule="evenodd" clip-rule="evenodd" d="M160.28 104.31s.21 1.23.76 1.41c.55.18 1.42.47 2.24.26.82-.21 1.11-.82 1.11-.82s-1.7-.88-4.11-.85Z" fill="#fff"/><path fill-rule="evenodd" clip-rule="evenodd" d="M173.38 236.37s-.87 11.65 1.33 11.83c.29.02 11.17.11 11.17.11l14.03.11s-.21-3.43-4.26-4.17c-4.05-.74-10.82-3.64-13.24-9.03-2.54-5.65-9.03 1.15-9.03 1.15Z" fill="#727271"/><path fill-rule="evenodd" clip-rule="evenodd" d="M121.24 172.08s-4.84 15.23 1.54 20.58c7.43 6.24 48.35 2.3 47.78 5.9-.99 6.16 2.5 40.9 2.5 40.9s8.15 1.56 13.33.12c0 0 6.05-49.94-.86-56.36-10.08-9.38-44.04-15.73-44.04-15.73l-20.25 4.59Z" fill="#727271"/><path fill-rule="evenodd" clip-rule="evenodd" d="M158.65 236.37s-.87 11.65 1.33 11.83c.29.02 11.17.11 11.17.11l14.03.11s-.21-3.43-4.26-4.17c-4.05-.74-10.82-3.64-13.24-9.03-2.55-5.65-9.03 1.15-9.03 1.15Z" fill="#727271"/><path fill-rule="evenodd" clip-rule="evenodd" d="M106.85 172.08s-4.84 15.23 1.53 20.58c7.44 6.24 48.31 2.3 47.78 5.9-1.53 10.46 1.87 41.73 1.87 41.73s8.78.72 13.96-.72c0 0 7.81-47.39-.86-56.36-5.61-5.8-40.2-13.43-40.2-13.43l-24.08 2.3Z" fill="#898989"/><path fill-rule="evenodd" clip-rule="evenodd" d="M132.69 98.02s-3.26 6.52-1.79 12.07l-4.2 14.88L114.15 110s4.88-6.77 5.99-15.34l12.55 3.36Z" fill="#FBA870"/><path fill-rule="evenodd" clip-rule="evenodd" d="M114.89 180.64c-4.26.26-7.93.08-10.16-.62-1.68-.51-2.94-14.31-3.56-28.99-.7-16.26-.62-33.61.51-35.25 2.18-3.16 12.37-5.99 12.66-6.03 1.78 1.22 6.09 3.72 11.43 3.63 3.61-.05 4.77-2.22 5.14-3.48 1.5.15 5.84 1.9 7.06 2.31 6.12 2.01 5.97 11.44 5.97 11.44s.59 35.07 2.55 43.33c1.78 7.52-17.95 12.84-31.6 13.66Z" fill="#00926F"/><path fill-rule="evenodd" clip-rule="evenodd" d="M135.03 101.7s-14 4.14-16.38-4.29c-2.38-8.43-7.61-13.13 2.79-16.52 8.55-2.79 12.35.12 13.83 2.74 1.48 2.63 4.89 16.31-.24 18.07Z" fill="#FBA870"/><path fill-rule="evenodd" clip-rule="evenodd" d="M137.57 92.46s5.48 10.24 1.19 12.95c-4.29 2.71-17.01 4.57-20.35-8.83 0 0 7.48 2.26 10.57 1.38 3.09-.88 4.65-3.17 7.87-2.49.01.01 1.04-.32.72-3.01Z" fill="#FAFAFA"/><path fill-rule="evenodd" clip-rule="evenodd" d="M116.27 85c.02-.93.98-1.65.98-1.65 7.1-5.46 13.87-3.12 13.87-3.12-6.52-5.34-17.97-1.02-18.97 5.52-1.64 10.67 6.28 10.83 6.28 10.83s6.63-4.96 1.37-7.79c-1.74-.94-2.72-1.91-3.2-2.86-.17-.31-.28-.62-.33-.93ZM136.34 97.47s-.58 1.7-2.22 2.05c-1.65.35-2.75-.84-2.75-.84s2.63-1.2 4.97-1.21Z" fill="#FAFAFA"/><path fill-rule="evenodd" clip-rule="evenodd" d="m130.88 170.5 2.83 6.24s-14.3-1.29-16.89.62c-1.2.89-2.18 2.33-1.94 3.28-4.26.25-7.93.07-10.16-.62-1.68-.51-2.94-14.31-3.56-28.99l2.04-2.83 4.95-4.34c2.06-1.8 5.3-.56 5.61 2.16.1.92.17 1.88.17 2.83-.01 7.01 11.53 16.9 16.95 21.65Z" fill="#007358"/><path fill-rule="evenodd" clip-rule="evenodd" d="M130.41 170.27s1.72.77 3.9.83c3.84.11 5.09.13 6.73.95.92.46 2.51 1.87 3.32 2.72.52.54 1.12 2.81.57 3.12-.99.57-6.39-1.33-7.85-.99-1.1.26-3.04.06-4.3-.52-1.26-.57-3.61-1.28-3.61-1.28l1.24-4.83Z" fill="#FBA870"/><path fill-rule="evenodd" clip-rule="evenodd" d="M134.62 171.22s2.87-.6 4.1-1.12c0 0 .67.44.26.83-.41.39-1.58.8-1.58.8l-2.78-.51Z" fill="#FBA870"/><path fill-rule="evenodd" clip-rule="evenodd" d="M102.99 114.45s-7.77 4.46-7.63 24.18c.14 19.72-1.15 23.31 2.45 25.9s24.06 10.67 31.54 11.15c0 0 2.69-2.73 1.53-5.71 0 0-23.1-15.13-23.38-16-.29-.86 7-16.64 7.72-21.83.72-5.18-12.23-17.69-12.23-17.69Z" fill="#00926F"/><path fill-rule="evenodd" clip-rule="evenodd" d="M186.09 171.94s-5.37-.14-6.43.91c-1.05 1.05-2.59 3.55-1.82 4.22.77.67 3.84-.96 5.76-.58s3.17.1 4.99-1.25c1.82-1.34-2.5-3.3-2.5-3.3Z" fill="#FBA870"/><path fill-rule="evenodd" clip-rule="evenodd" d="m193.29 150.64-7.34 21.3s.21 2.23 3.38 3.67c0 0 12.59-12.59 11.73-17.77-.86-5.19-7.77-7.2-7.77-7.2Z" fill="#9A34A8"/><path fill-rule="evenodd" clip-rule="evenodd" d="M71.55 152.12v4.78c-1.99 0-3.6 1.61-3.6 3.6s1.61 3.6 3.6 3.6v4.78h-4.78c0-1.99-1.61-3.6-3.6-3.6s-3.6 1.61-3.6 3.6h-4.78v-16.76h16.76ZM205.67 123.41h24.79V98.62H223c0-2.56-2.08-4.63-4.64-4.63-2.56 0-4.63 2.07-4.63 4.63h-8.06l.02 7.78c2.62.59 4.14 2.86 4.09 4.94-.05 2.08-1.31 3.68-4.07 4.37l-.04 7.7Z" fill="#FEFEFE"/></svg>