<svg width="17" height="17" viewBox="0 0 17 17" fill="none" xmlns="http://www.w3.org/2000/svg">
<path fill-rule="evenodd" clip-rule="evenodd" d="M8.79987 0.589966C11.0599 0.589966 13.0999 1.50996 14.5899 2.98996C16.0699 4.46996 16.9899 6.51997 16.9899 8.77997C16.9899 11.04 16.0699 13.0799 14.5899 14.5699C13.1099 16.0499 11.0599 16.97 8.79987 16.97C6.53987 16.97 4.49989 16.0499 3.00989 14.5699C1.52989 13.0899 0.609863 11.04 0.609863 8.77997C0.609863 6.51997 1.51989 4.46996 3.00989 2.98996C4.48989 1.49996 6.53987 0.589966 8.79987 0.589966ZM12.6999 4.86996C11.6999 3.86996 10.3199 3.25995 8.79987 3.25995C7.27987 3.25995 5.8999 3.87996 4.8999 4.86996C3.8999 5.86996 3.27991 7.24996 3.27991 8.76996C3.27991 10.29 3.8999 11.67 4.8999 12.67C5.8999 13.67 7.27987 14.2899 8.79987 14.2899C10.3199 14.2899 11.6999 13.67 12.6999 12.67C13.6999 11.67 14.3099 10.29 14.3099 8.76996C14.3099 7.23996 13.6999 5.86996 12.6999 4.86996Z" fill="#FEFEFE"/>
</svg>
