<svg width="41" height="47" viewBox="0 0 41 47" fill="none" xmlns="http://www.w3.org/2000/svg">
<path fill-rule="evenodd" clip-rule="evenodd" d="M2.73999 0.400024H40.24V39.91H29.34C28.96 41.49 28.16 42.91 27.05 44.02C25.49 45.58 23.33 46.55 20.94 46.55C18.56 46.55 16.4 45.58 14.84 44.02C13.73 42.91 12.92 41.49 12.54 39.91H0.749989L0.789989 25.17L2.33998 24.82C3.66998 24.52 4.72999 23.82 5.45999 22.92C6.24999 21.97 6.66999 20.81 6.63999 19.73C6.60999 18.69 6.28999 17.78 5.61999 17.07C4.92999 16.33 3.83999 15.74 2.32999 15.37L0.819988 15L0.73999 0.400024H2.73999ZM36.27 4.40002H4.74999L4.78999 11.96C6.36999 12.54 7.60999 13.36 8.53999 14.36C9.89999 15.82 10.57 17.62 10.62 19.64C10.67 21.67 9.93999 23.78 8.53999 25.47C7.57999 26.63 6.30999 27.6 4.75999 28.22L4.73999 35.91H16.3V37.91C16.3 39.19 16.82 40.35 17.66 41.19V41.2C18.49 42.03 19.65 42.55 20.94 42.55C22.22 42.55 23.38 42.03 24.22 41.19H24.23C25.07 40.35 25.59 39.19 25.59 37.91V35.91H36.27V4.40002Z" fill="#00926F"/>
</svg>
